# xmcd CD database file
#
# Track frame offsets:
#	150
#	14075
#	26337
#	37865
#	49842
#	62430
#	75662
#	88642
#	97897
#	110300
#	122030
#	134615
#	145995
#	159190
#	171105
#	184027
#
# Disc length: 2603 seconds
#
# Revision: 0
# Processed by: cddbd v1.5.2PL0 Copyright (c) Steve Scherf et al.
# Submitted via: CDex 1.51
#
DISCID=c50a2910
DTITLE=LA SONORA MATANCERA - EL BAILE DEL SIGLO CON LA SONORA MATANCERA (DISCO 2)
DYEAR=1999
DGENRE=Salsa
TTITLE0=EL MUÑECO DE LA CIUDAD - NELSON PINEDO
TTITLE1=LA SOPA EN BOTELLA - CELIA CRUZ
TTITLE2=EL NEGRITO DEL BATEY - ALBERTO BELTRÁN
TTITLE3=CUMBIA DE BUENAVENTURA - ELLIOT ROMERO
TTITLE4=CERCA DEL RÍO GRANDE - CARLOS ARGENTINO
TTITLE5=MOMPOSIMA - NELSON PINEDO
TTITLE6=TU RICA BOCA - CARLOS ARGENTINO
TTITLE7=MÁGICA LUNA - CELIA CRUZ
TTITLE8=RÍO MANZANAREZ - VÍCTOR PIÑEROS
TTITLE9=BÉSAME MORENITA - NELSON PINEDO
TTITLE10=CAMPAY LOBO - LAITO/ROGELIO/LAITO
TTITLE11=PERDÓNAME VIDA - CARLOS ARGENTINO
TTITLE12=BESITO DE COCO - CELIO GONZÁLEZ
TTITLE13=TRÓPICO - NELSON PINEDO
TTITLE14=VÁMONOS PA'L CAMPO - CARLOS ARGENTINO
TTITLE15=DESCARGA SONORA - INSTRUMENTAL
EXTD=YEAR: 1999
EXTT0=
EXTT1=
EXTT2=
EXTT3=
EXTT4=
EXTT5=
EXTT6=
EXTT7=
EXTT8=
EXTT9=
EXTT10=
EXTT11=
EXTT12=
EXTT13=
EXTT14=
EXTT15=
PLAYORDER=
